<?xml version="1.0" standalone="no"?>
<svg xmlns:xlink="http://www.w3.org/1999/xlink" id="wave" style="transform:rotate(0deg); transition: 0.3s" viewBox="0 0 1440 490" version="1.1" xmlns="http://www.w3.org/2000/svg"><defs><linearGradient id="sw-gradient-0" x1="0" x2="0" y1="1" y2="0"><stop stop-color="rgba(54.674, 123.267, 115.352, 0.58)" offset="0%"/><stop stop-color="rgba(138, 255, 193, 0)" offset="100%"/></linearGradient></defs><path style="transform:translate(0, 0px); opacity:1" fill="url(#sw-gradient-0)" d="M0,294L120,253.2C240,212,480,131,720,81.7C960,33,1200,16,1440,8.2C1680,0,1920,0,2160,8.2C2400,16,2640,33,2880,32.7C3120,33,3360,16,3600,65.3C3840,114,4080,229,4320,269.5C4560,310,4800,278,5040,285.8C5280,294,5520,343,5760,343C6000,343,6240,294,6480,261.3C6720,229,6960,212,7200,245C7440,278,7680,359,7920,400.2C8160,441,8400,441,8640,375.7C8880,310,9120,180,9360,147C9600,114,9840,180,10080,171.5C10320,163,10560,82,10800,49C11040,16,11280,33,11520,106.2C11760,180,12000,310,12240,367.5C12480,425,12720,408,12960,334.8C13200,261,13440,131,13680,73.5C13920,16,14160,33,14400,106.2C14640,180,14880,310,15120,367.5C15360,425,15600,408,15840,367.5C16080,327,16320,261,16560,196C16800,131,17040,65,17160,32.7L17280,0L17280,490L17160,490C17040,490,16800,490,16560,490C16320,490,16080,490,15840,490C15600,490,15360,490,15120,490C14880,490,14640,490,14400,490C14160,490,13920,490,13680,490C13440,490,13200,490,12960,490C12720,490,12480,490,12240,490C12000,490,11760,490,11520,490C11280,490,11040,490,10800,490C10560,490,10320,490,10080,490C9840,490,9600,490,9360,490C9120,490,8880,490,8640,490C8400,490,8160,490,7920,490C7680,490,7440,490,7200,490C6960,490,6720,490,6480,490C6240,490,6000,490,5760,490C5520,490,5280,490,5040,490C4800,490,4560,490,4320,490C4080,490,3840,490,3600,490C3360,490,3120,490,2880,490C2640,490,2400,490,2160,490C1920,490,1680,490,1440,490C1200,490,960,490,720,490C480,490,240,490,120,490L0,490Z"/><defs><linearGradient id="sw-gradient-1" x1="0" x2="0" y1="1" y2="0"><stop stop-color="rgba(20.779, 61.793, 49.29, 0.42)" offset="0%"/><stop stop-color="rgba(50, 128, 119, 0)" offset="100%"/></linearGradient></defs><path style="transform:translate(0, 50px); opacity:0.9" fill="url(#sw-gradient-1)" d="M0,98L120,130.7C240,163,480,229,720,277.7C960,327,1200,359,1440,383.8C1680,408,1920,425,2160,383.8C2400,343,2640,245,2880,220.5C3120,196,3360,245,3600,269.5C3840,294,4080,294,4320,310.3C4560,327,4800,359,5040,310.3C5280,261,5520,131,5760,98C6000,65,6240,131,6480,179.7C6720,229,6960,261,7200,228.7C7440,196,7680,98,7920,49C8160,0,8400,0,8640,73.5C8880,147,9120,294,9360,359.3C9600,425,9840,408,10080,408.3C10320,408,10560,425,10800,359.3C11040,294,11280,147,11520,81.7C11760,16,12000,33,12240,32.7C12480,33,12720,16,12960,40.8C13200,65,13440,131,13680,171.5C13920,212,14160,229,14400,204.2C14640,180,14880,114,15120,122.5C15360,131,15600,212,15840,269.5C16080,327,16320,359,16560,326.7C16800,294,17040,196,17160,147L17280,98L17280,490L17160,490C17040,490,16800,490,16560,490C16320,490,16080,490,15840,490C15600,490,15360,490,15120,490C14880,490,14640,490,14400,490C14160,490,13920,490,13680,490C13440,490,13200,490,12960,490C12720,490,12480,490,12240,490C12000,490,11760,490,11520,490C11280,490,11040,490,10800,490C10560,490,10320,490,10080,490C9840,490,9600,490,9360,490C9120,490,8880,490,8640,490C8400,490,8160,490,7920,490C7680,490,7440,490,7200,490C6960,490,6720,490,6480,490C6240,490,6000,490,5760,490C5520,490,5280,490,5040,490C4800,490,4560,490,4320,490C4080,490,3840,490,3600,490C3360,490,3120,490,2880,490C2640,490,2400,490,2160,490C1920,490,1680,490,1440,490C1200,490,960,490,720,490C480,490,240,490,120,490L0,490Z"/></svg>